<svg width="24" height="24" viewBox="0 0 24 24" fill="none" xmlns="http://www.w3.org/2000/svg">
<path d="M13 2H11V6H13V2ZM8.4644 7.05L5.6357 4.2217L4.2217 5.6357L7.05 8.4644L8.4644 7.05ZM6 11H2V13H6V11ZM4.2217 18.3643L5.6357 19.7783L8.4644 16.95L7.05 15.5356L4.2217 18.3643ZM11 22H13V18H11V22ZM15.5356 16.95L18.3643 19.7786L19.7783 18.3646L16.95 15.5356L15.5356 16.95ZM18 11V13H22V11H18ZM19.7783 5.6357L18.3643 4.2217L15.5356 7.05L16.95 8.4644L19.7783 5.6357ZM12 8C11.2089 8 10.4355 8.2346 9.77772 8.67412C9.11992 9.11365 8.60723 9.73836 8.30448 10.4693C8.00173 11.2002 7.92252 12.0044 8.07686 12.7804C8.2312 13.5563 8.61216 14.269 9.17157 14.8284C9.73098 15.3878 10.4437 15.7688 11.2196 15.9231C11.9956 16.0775 12.7998 15.9983 13.5307 15.6955C14.2616 15.3928 14.8864 14.8801 15.3259 14.2223C15.7654 13.5645 16 12.7911 16 12C16 10.9391 15.5786 9.92172 14.8284 9.17157C14.0783 8.42143 13.0609 8 12 8ZM12 14C11.6044 14 11.2178 13.8827 10.8889 13.6629C10.56 13.4432 10.3036 13.1308 10.1522 12.7654C10.0009 12.3999 9.96126 11.9978 10.0384 11.6098C10.1156 11.2219 10.3061 10.8655 10.5858 10.5858C10.8655 10.3061 11.2219 10.1156 11.6098 10.0384C11.9978 9.96126 12.3999 10.0009 12.7654 10.1522C13.1308 10.3036 13.4432 10.56 13.6629 10.8889C13.8827 11.2178 14 11.6044 14 12C13.9994 12.5302 13.7885 13.0386 13.4135 13.4135C13.0386 13.7885 12.5302 13.9994 12 14Z" fill="black"/>
</svg>
